<svg xmlns="http://www.w3.org/2000/svg" viewBox="0 0 420 300" role="img" aria-labelledby="title desc">
  <title id="title">Mini Farmacia</title>
  <desc id="desc">Logotipo moderno de Mini Farmacia con capsula azul y roja.</desc>
  <defs>
    <linearGradient id="capsuleBlue" x1="76" x2="166" y1="35" y2="156" gradientUnits="userSpaceOnUse">
      <stop stop-color="#0A7BFF" />
      <stop offset="1" stop-color="#0B43C7" />
    </linearGradient>
    <linearGradient id="capsuleRed" x1="112" x2="182" y1="133" y2="230" gradientUnits="userSpaceOnUse">
      <stop stop-color="#FF486B" />
      <stop offset="1" stop-color="#E60035" />
    </linearGradient>
    <filter id="shadow" x="-20%" y="-20%" width="140%" height="140%">
      <feDropShadow dx="0" dy="12" stdDeviation="10" flood-color="#082b73" flood-opacity=".24" />
    </filter>
  </defs>
  <g filter="url(#shadow)">
    <path
      fill="#fff"
      d="M36 157C18 104 48 51 98 37c50-14 76 16 102 40 24 22 46 18 87 19 54 2 94 39 98 88 4 50-29 85-77 91-58 7-83-19-120-22-43-4-79 28-116 8-30-16-25-68-36-104Z"
    />
    <path
      fill="url(#capsuleBlue)"
      d="M126 21c38-5 73 21 79 58l9 58-143 21-9-58c-6-38 20-73 64-79Z"
      transform="rotate(-10 138 90)"
    />
    <path
      fill="url(#capsuleRed)"
      d="m71 155 143-21 8 54c6 40-21 78-61 84-40 6-78-21-84-61l-6-56Z"
      transform="rotate(-10 146 202)"
    />
    <path
      fill="none"
      stroke="#fff"
      stroke-linecap="round"
      stroke-width="11"
      d="M83 156 216 136"
    />
    <circle cx="132" cy="83" r="8" fill="#fff" opacity=".86" />
    <circle cx="164" cy="78" r="8" fill="#072b78" opacity=".58" />
    <path
      fill="none"
      stroke="#072b78"
      stroke-linecap="round"
      stroke-width="7"
      d="M127 111c16 13 38 10 51-6"
    />
  </g>
  <g transform="translate(106 119) rotate(-7)">
    <path
      fill="#0b43c7"
      d="M25 15 86 4l37 56 28-63 60-8 32 129-52 7-13-60-25 64-35 5-40-54 4 60-53 8L25 15Z"
    />
    <path
      fill="#fff"
      d="M41 31 78 25l35 53 26-61 39-5 24 98-31 4-13-64-26 67-21 3-42-57 5 62-31 4-2-98Z"
    />
    <text
      x="19"
      y="167"
      fill="#0b43c7"
      font-family="Arial Black, Arial, sans-serif"
      font-size="54"
      font-weight="900"
      letter-spacing="-1"
      stroke="#fff"
      stroke-linejoin="round"
      stroke-width="8"
    >FARMACIA</text>
    <text
      x="19"
      y="167"
      fill="#0b43c7"
      font-family="Arial Black, Arial, sans-serif"
      font-size="54"
      font-weight="900"
      letter-spacing="-1"
    >FARMACIA</text>
  </g>
</svg>
